<?xml version="1.0" encoding="UTF-8" standalone="no"?>
<!-- Created with Inkscape (http://www.inkscape.org/) -->

<svg
   width="120"
   height="120"
   viewBox="0 0 120 120"
   version="1.1"
   id="svg5"
   inkscape:version="1.1.2 (0a00cf5339, 2022-02-04)"
   sodipodi:docname="infinitecopy.svg"
   inkscape:export-filename="/home/lholecek/dev/infinitecopy/infinitecopy.png"
   inkscape:export-xdpi="25.6"
   inkscape:export-ydpi="25.6"
   xmlns:inkscape="http://www.inkscape.org/namespaces/inkscape"
   xmlns:sodipodi="http://sodipodi.sourceforge.net/DTD/sodipodi-0.dtd"
   xmlns="http://www.w3.org/2000/svg"
   xmlns:svg="http://www.w3.org/2000/svg">
  <sodipodi:namedview
     id="namedview7"
     pagecolor="#ffffff"
     bordercolor="#666666"
     borderopacity="1.0"
     inkscape:pageshadow="2"
     inkscape:pageopacity="0.0"
     inkscape:pagecheckerboard="0"
     inkscape:document-units="px"
     showgrid="true"
     inkscape:zoom="4.7050855"
     inkscape:cx="34.749634"
     inkscape:cy="60.360221"
     inkscape:window-width="1920"
     inkscape:window-height="1041"
     inkscape:window-x="0"
     inkscape:window-y="0"
     inkscape:window-maximized="1"
     inkscape:current-layer="layer1">
    <inkscape:grid
       type="xygrid"
       id="grid448" />
  </sodipodi:namedview>
  <defs
     id="defs2" />
  <g
     inkscape:label="Layer 1"
     inkscape:groupmode="layer"
     id="layer1">
    <path
       style="color:#000000;fill:#ffffff;stroke:#000000;stroke-opacity:1;fill-opacity:1;stroke-width:4;stroke-miterlimit:4;stroke-dasharray:none"
       d="M 87.515625,31.742187 C 77.535088,31.594036 69.801861,37.34099 64.662109,43.59375 63.461812,45.05397 62.379858,46.565265 61.365234,48.080078 57.143219,41.954451 51.093606,35.96227 41.972656,33.283203 36.140838,31.570242 30.075564,32.900999 25.626953,35.896484 c -4.44861,2.995486 -7.597476,7.364001 -9.662109,12.21875 -4.129267,9.709499 -4.239835,22.30919 3.757812,31.484375 3.865416,4.434543 8.936424,7.06931 13.958985,7.746094 5.02256,0.676784 9.819131,-0.39724 14.039062,-2.226562 5.437482,-2.357126 9.99316,-5.891604 13.566406,-9.931641 5.058893,7.11972 12.550436,11.994634 20.765625,13.408203 8.371664,1.440494 18.019576,-1.467741 23.687496,-9.589844 5.88544,-8.433791 6.16936,-19.239549 3.26758,-28.582031 -1.45089,-4.671241 -3.79808,-9.074779 -7.34961,-12.578125 -3.551528,-3.503346 -8.558086,-6.020619 -14.142575,-6.103516 z m -0.208984,13.998047 c 1.76217,0.02616 3.038708,0.611534 4.519531,2.072266 1.480823,1.460732 2.915312,3.881402 3.810547,6.763672 1.790469,5.76454 1.021819,12.980545 -1.376953,16.417969 -2.61628,3.749112 -5.628109,4.528047 -9.832032,3.804687 -4.203922,-0.72336 -9.041675,-3.736674 -11.93164,-7.931641 -1.029496,-1.494377 -1.986312,-3.319392 -2.957032,-5.041015 1.793643,-3.341156 3.719816,-6.641499 5.939454,-9.341797 3.642374,-4.431127 7.115347,-6.814097 11.828125,-6.744141 z m -51.671875,0.761719 c 0.710186,-0.132097 1.454865,-0.06059 2.392578,0.214844 5.864385,1.722527 9.008935,4.947547 12.296875,9.929687 1.076159,1.63068 2.129521,3.637777 3.185547,5.5625 -1.683154,3.050132 -6.583519,7.996939 -11.357422,10.066407 -2.467655,1.069718 -4.764825,1.444763 -6.601563,1.197265 -1.836737,-0.247498 -3.389232,-0.910638 -5.273437,-3.072265 -3.501594,-4.017154 -3.819648,-11.18233 -1.427735,-16.806641 1.195957,-2.812156 2.989952,-5.002747 4.595703,-6.083984 0.802876,-0.540619 1.479267,-0.875716 2.189454,-1.007813 z"
       id="path3514" />
  </g>
</svg>
